<mxfile host="app.diagrams.net" modified="2021-11-05T16:50:30.556Z" agent="5.0 (X11; Linux x86_64) AppleWebKit/537.36 (KHTML, like Gecko) Chrome/91.0.4472.164 Safari/537.36" etag="rMEeYh1fYn5Fa8SteUq5" version="15.6.8" type="github">
  <diagram id="fFCU8DNaMDtPlIepH9ak" name="Page-1">
    <mxGraphModel dx="868" dy="449" grid="1" gridSize="10" guides="1" tooltips="1" connect="1" arrows="1" fold="1" page="1" pageScale="1" pageWidth="827" pageHeight="1169" math="0" shadow="0">
      <root>
        <mxCell id="0" />
        <mxCell id="1" parent="0" />
        <mxCell id="6hHTFadSB-rCtfDtnR71-4" value="&lt;p style=&quot;margin: 0px ; margin-top: 6px ; text-align: center&quot;&gt;&lt;b&gt;Clube&lt;/b&gt;&lt;/p&gt;&lt;hr&gt;&lt;p style=&quot;margin: 0px ; margin-left: 8px&quot;&gt;Nome&lt;br&gt;Morada&lt;/p&gt;&lt;p style=&quot;margin: 0px ; margin-left: 8px&quot;&gt;Ano fundado&lt;/p&gt;" style="align=left;overflow=fill;html=1;dropTarget=0;" vertex="1" parent="1">
          <mxGeometry x="50" y="470" width="180" height="90" as="geometry" />
        </mxCell>
        <mxCell id="6hHTFadSB-rCtfDtnR71-5" value="" style="shape=component;jettyWidth=8;jettyHeight=4;" vertex="1" parent="6hHTFadSB-rCtfDtnR71-4">
          <mxGeometry x="1" width="20" height="20" relative="1" as="geometry">
            <mxPoint x="-20" y="4" as="offset" />
          </mxGeometry>
        </mxCell>
        <mxCell id="6hHTFadSB-rCtfDtnR71-7" value="" style="endArrow=open;endFill=1;endSize=12;html=1;rounded=0;" edge="1" parent="1" target="6hHTFadSB-rCtfDtnR71-8">
          <mxGeometry width="160" relative="1" as="geometry">
            <mxPoint x="139.5" y="480" as="sourcePoint" />
            <mxPoint x="139.5" y="330" as="targetPoint" />
          </mxGeometry>
        </mxCell>
        <mxCell id="6hHTFadSB-rCtfDtnR71-8" value="&lt;p style=&quot;margin: 0px ; margin-top: 6px ; text-align: center&quot;&gt;&lt;b&gt;Equipa&lt;/b&gt;&lt;/p&gt;&lt;hr&gt;&lt;p style=&quot;margin: 0px ; margin-left: 8px&quot;&gt;Nome&lt;br&gt;Genero&lt;/p&gt;" style="align=left;overflow=fill;html=1;dropTarget=0;" vertex="1" parent="1">
          <mxGeometry x="50" y="230" width="180" height="90" as="geometry" />
        </mxCell>
        <mxCell id="6hHTFadSB-rCtfDtnR71-9" value="" style="shape=component;jettyWidth=8;jettyHeight=4;" vertex="1" parent="6hHTFadSB-rCtfDtnR71-8">
          <mxGeometry x="1" width="20" height="20" relative="1" as="geometry">
            <mxPoint x="-24" y="4" as="offset" />
          </mxGeometry>
        </mxCell>
        <mxCell id="6hHTFadSB-rCtfDtnR71-10" value="" style="html=1;shadow=0;dashed=0;align=center;verticalAlign=middle;shape=mxgraph.arrows2.arrow;dy=0.6;dx=40;notch=0;rotation=-90;" vertex="1" parent="1">
          <mxGeometry x="100" y="430" width="20" height="30" as="geometry" />
        </mxCell>
        <mxCell id="6hHTFadSB-rCtfDtnR71-11" value="*" style="text;html=1;align=center;verticalAlign=middle;resizable=0;points=[];autosize=1;strokeColor=none;fillColor=none;" vertex="1" parent="1">
          <mxGeometry x="100" y="320" width="20" height="20" as="geometry" />
        </mxCell>
        <mxCell id="6hHTFadSB-rCtfDtnR71-12" value="&lt;p style=&quot;margin: 0px ; margin-top: 6px ; text-align: center&quot;&gt;&lt;b&gt;Escalao&lt;/b&gt;&lt;/p&gt;&lt;hr&gt;&lt;p style=&quot;margin: 0px ; margin-left: 8px&quot;&gt;Nome&lt;br&gt;Idade min&lt;/p&gt;&lt;p style=&quot;margin: 0px ; margin-left: 8px&quot;&gt;Idade max&lt;/p&gt;" style="align=left;overflow=fill;html=1;dropTarget=0;" vertex="1" parent="1">
          <mxGeometry x="530" y="230" width="180" height="90" as="geometry" />
        </mxCell>
        <mxCell id="6hHTFadSB-rCtfDtnR71-13" value="" style="shape=component;jettyWidth=8;jettyHeight=4;" vertex="1" parent="6hHTFadSB-rCtfDtnR71-12">
          <mxGeometry x="1" width="20" height="20" relative="1" as="geometry">
            <mxPoint x="-24" y="4" as="offset" />
          </mxGeometry>
        </mxCell>
        <mxCell id="6hHTFadSB-rCtfDtnR71-14" value="" style="endArrow=open;endFill=1;endSize=12;html=1;rounded=0;exitX=1;exitY=0.578;exitDx=0;exitDy=0;exitPerimeter=0;entryX=0;entryY=0.5;entryDx=0;entryDy=0;" edge="1" parent="1" source="6hHTFadSB-rCtfDtnR71-8" target="6hHTFadSB-rCtfDtnR71-12">
          <mxGeometry width="160" relative="1" as="geometry">
            <mxPoint x="240" y="280" as="sourcePoint" />
            <mxPoint x="450" y="280" as="targetPoint" />
          </mxGeometry>
        </mxCell>
        <mxCell id="6hHTFadSB-rCtfDtnR71-15" value="*" style="text;html=1;align=center;verticalAlign=middle;resizable=0;points=[];autosize=1;strokeColor=none;fillColor=none;" vertex="1" parent="1">
          <mxGeometry x="230" y="240" width="20" height="20" as="geometry" />
        </mxCell>
        <mxCell id="6hHTFadSB-rCtfDtnR71-16" value="1" style="text;html=1;align=center;verticalAlign=middle;resizable=0;points=[];autosize=1;strokeColor=none;fillColor=none;" vertex="1" parent="1">
          <mxGeometry x="510" y="290" width="20" height="20" as="geometry" />
        </mxCell>
        <mxCell id="6hHTFadSB-rCtfDtnR71-17" value="&lt;p style=&quot;margin: 0px ; margin-top: 6px ; text-align: center&quot;&gt;&lt;b&gt;Campeonato&lt;/b&gt;&lt;/p&gt;&lt;hr&gt;&lt;p style=&quot;margin: 0px ; margin-left: 8px&quot;&gt;Nome&lt;br&gt;Genero&lt;/p&gt;" style="align=left;overflow=fill;html=1;dropTarget=0;" vertex="1" parent="1">
          <mxGeometry x="870" y="400" width="180" height="90" as="geometry" />
        </mxCell>
        <mxCell id="6hHTFadSB-rCtfDtnR71-18" value="" style="shape=component;jettyWidth=8;jettyHeight=4;" vertex="1" parent="6hHTFadSB-rCtfDtnR71-17">
          <mxGeometry x="1" width="20" height="20" relative="1" as="geometry">
            <mxPoint x="-24" y="4" as="offset" />
          </mxGeometry>
        </mxCell>
        <mxCell id="6hHTFadSB-rCtfDtnR71-19" value="&lt;p style=&quot;margin: 0px ; margin-top: 6px ; text-align: center&quot;&gt;&lt;b&gt;Epoca&lt;/b&gt;&lt;/p&gt;&lt;hr&gt;&lt;p style=&quot;margin: 0px ; margin-left: 8px&quot;&gt;Ano&lt;br&gt;&lt;/p&gt;" style="align=left;overflow=fill;html=1;dropTarget=0;" vertex="1" parent="1">
          <mxGeometry x="830" y="640" width="180" height="90" as="geometry" />
        </mxCell>
        <mxCell id="6hHTFadSB-rCtfDtnR71-20" value="" style="shape=component;jettyWidth=8;jettyHeight=4;" vertex="1" parent="6hHTFadSB-rCtfDtnR71-19">
          <mxGeometry x="1" width="20" height="20" relative="1" as="geometry">
            <mxPoint x="-24" y="4" as="offset" />
          </mxGeometry>
        </mxCell>
        <mxCell id="6hHTFadSB-rCtfDtnR71-21" value="" style="endArrow=open;endFill=1;endSize=12;html=1;rounded=0;entryX=0.461;entryY=0.011;entryDx=0;entryDy=0;entryPerimeter=0;exitX=1.017;exitY=0.589;exitDx=0;exitDy=0;exitPerimeter=0;" edge="1" parent="1" source="6hHTFadSB-rCtfDtnR71-12" target="6hHTFadSB-rCtfDtnR71-17">
          <mxGeometry width="160" relative="1" as="geometry">
            <mxPoint x="730" y="280" as="sourcePoint" />
            <mxPoint x="960" y="280" as="targetPoint" />
          </mxGeometry>
        </mxCell>
        <mxCell id="6hHTFadSB-rCtfDtnR71-22" value="1" style="text;html=1;align=center;verticalAlign=middle;resizable=0;points=[];autosize=1;strokeColor=none;fillColor=none;" vertex="1" parent="1">
          <mxGeometry x="710" y="260" width="20" height="20" as="geometry" />
        </mxCell>
        <mxCell id="6hHTFadSB-rCtfDtnR71-23" value="*" style="text;html=1;align=center;verticalAlign=middle;resizable=0;points=[];autosize=1;strokeColor=none;fillColor=none;" vertex="1" parent="1">
          <mxGeometry x="970" y="380" width="20" height="20" as="geometry" />
        </mxCell>
      </root>
    </mxGraphModel>
  </diagram>
</mxfile>
